<?xml version="1.0" encoding="UTF-8" standalone="no"?>
<!-- Created with Inkscape (http://www.inkscape.org/) -->

<svg
   width="321.11069mm"
   height="321.11069mm"
   viewBox="0 0 321.11069 321.11069"
   version="1.1"
   id="svg1"
   sodipodi:docname="favicon.svg"
   inkscape:version="1.3.2 (091e20e, 2023-11-25, custom)"
   xmlns:inkscape="http://www.inkscape.org/namespaces/inkscape"
   xmlns:sodipodi="http://sodipodi.sourceforge.net/DTD/sodipodi-0.dtd"
   xmlns:xlink="http://www.w3.org/1999/xlink"
   xmlns="http://www.w3.org/2000/svg"
   xmlns:svg="http://www.w3.org/2000/svg">
  <sodipodi:namedview
     id="namedview1"
     pagecolor="#0f1819"
     bordercolor="#000000"
     borderopacity="0.25"
     inkscape:showpageshadow="2"
     inkscape:pageopacity="0.0"
     inkscape:pagecheckerboard="0"
     inkscape:deskcolor="#d1d1d1"
     inkscape:document-units="mm"
     inkscape:zoom="0.72426347"
     inkscape:cx="550.90449"
     inkscape:cy="633.05692"
     inkscape:window-width="1920"
     inkscape:window-height="1009"
     inkscape:window-x="-8"
     inkscape:window-y="1072"
     inkscape:window-maximized="1"
     inkscape:current-layer="layer1" />
  <defs
     id="defs1">
    <linearGradient
       id="linearGradient7"
       inkscape:collect="always">
      <stop
         style="stop-color:#d54eb7;stop-opacity:1;"
         offset="0"
         id="stop7" />
      <stop
         style="stop-color:#9967da;stop-opacity:1;"
         offset="1"
         id="stop8" />
    </linearGradient>
    <linearGradient
       id="linearGradient5"
       inkscape:collect="always">
      <stop
         style="stop-color:#2470ea;stop-opacity:1;"
         offset="0"
         id="stop5" />
      <stop
         style="stop-color:#e70e61;stop-opacity:1;"
         offset="1"
         id="stop6" />
    </linearGradient>
    <linearGradient
       id="linearGradient3"
       inkscape:collect="always">
      <stop
         style="stop-color:#e42f75;stop-opacity:1;"
         offset="0"
         id="stop3" />
      <stop
         style="stop-color:#e2665a;stop-opacity:1;"
         offset="1"
         id="stop4" />
    </linearGradient>
    <linearGradient
       inkscape:collect="always"
       xlink:href="#linearGradient3"
       id="linearGradient4"
       x1="48.179695"
       y1="162.86264"
       x2="287.79684"
       y2="162.86264"
       gradientUnits="userSpaceOnUse" />
    <linearGradient
       inkscape:collect="always"
       xlink:href="#linearGradient5"
       id="linearGradient6"
       x1="-18.649359"
       y1="62.94371"
       x2="220.96777"
       y2="62.94371"
       gradientUnits="userSpaceOnUse" />
    <linearGradient
       inkscape:collect="always"
       xlink:href="#linearGradient7"
       id="linearGradient8"
       x1="20.351404"
       y1="111.17082"
       x2="259.96854"
       y2="111.17082"
       gradientUnits="userSpaceOnUse" />
  </defs>
  <g
     inkscape:label="Layer 1"
     inkscape:groupmode="layer"
     id="layer1"
     transform="translate(26.346922,48.017483)"
     style="display:inline">
    <rect
       style="display:inline;stroke:none;stroke-width:1.765;fill:#0f191a;fill-opacity:1"
       id="rect1"
       width="321.11069"
       height="321.11069"
       x="-26.346922"
       y="-48.017483" />
    <path
       d="m 46.005991,57.920761 q 0,9.276953 -9.971484,17.83457 l 6.870899,1.364258 q 0.520898,0.992188 1.463476,2.951758 -2.778125,-0.198437 -7.987109,-0.198437 -4.936133,0 -10.492383,0.148828 1.95957,-2.926953 4.291211,-9.425781 2.554883,-7.14375 2.554883,-10.963672 0,-2.976563 -1.736328,-2.976563 -2.877344,0 -6.424414,5.903516 -3.050977,5.035351 -4.737695,10.889258 0,6.474023 0.644921,8.185546 0.967383,0.42168 3.671094,1.537891 -0.272851,0.694531 -0.917773,2.480469 -8.483203,-1.785938 -14.8828126,-3.59668 2.7533206,-6.151562 2.7533206,-15.403711 0,-9.946679 -3.3734378,-9.946679 -2.2324218,0 -4.2912109,3.943945 -1.9843749,3.819922 -2.75332024,9.202539 0.0496094,3.125391 2.33164064,12.253515 -4.8865234,-2.133203 -10.2691405,-2.133203 -4.7376952,0 -6.5484372,1.711524 l -0.248047,-5.928321 q 0.917773,-0.520898 2.282031,-0.520898 1.513086,0 3.4478516,0.768945 -1.5874999,-4.812109 -2.5796876,-11.881445 -0.967383,-6.746875 -0.967383,-12.352734 v -1.066602 q 0,-2.083593 -1.661914,-2.455664 -1.661914,-0.124023 -3.323828,-0.248046 -0.917773,-0.148829 -0.917773,-3.745508 0,-0.198438 0.520898,-0.198438 2.827735,0 19.2484375,-1.215429 -2.48046873,7.069336 -2.48046873,14.982031 0,1.562695 0.14882812,2.629297 Q 3.0938827,48.222129 12.668492,43.583652 q 2.207617,-1.066601 3.819922,-1.066601 5.283398,0 5.283398,10.517187 0,3.770313 -0.669726,8.235156 1.463476,-3.299023 5.531445,-8.383984 4.613672,-5.729883 10.120312,-5.729883 3.919141,0 6.573242,3.001367 2.678906,3.075782 2.678906,7.763867 z m 36.810154,5.134571 q 0,2.33164 -0.570508,5.630664 -0.992187,5.853906 -4.365625,9.773046 -4.365625,5.060157 -11.633398,5.060157 -6.598047,0 -11.931054,-4.216797 -5.630664,-4.464844 -5.630664,-10.715625 0,-4.911328 4.216796,-9.326562 4.787305,-5.010547 12.451953,-5.97793 2.455664,-0.297656 5.680274,-0.297656 6.449218,0 9.252148,2.629297 2.530078,2.38125 2.530078,7.441406 z m -4.266406,3.596679 q 0,-1.909961 -3.175,-3.001367 -2.877344,-0.967383 -7.391797,-0.967383 -4.960937,0 -9.649023,2.728516 -4.415234,2.579687 -4.415234,4.886523 0,1.5875 2.827734,2.654102 2.827734,1.066601 6.870898,1.066601 5.109766,0 10.021094,-2.406054 4.911328,-2.406055 4.911328,-4.960938 z M 127.68782,50.801816 q -0.24805,2.182813 -0.66972,4.415235 -0.71934,-0.47129 -3.91915,-2.182813 -3.99355,2.728516 -6.54843,11.782226 -2.00918,7.19336 -2.92696,17.214453 l -0.0744,0.868164 q -0.0496,0.669727 -0.5457,0.570508 -5.8291,-1.116211 -11.53418,-1.116211 H 100.0554 Q 92.291533,69.827011 89.538213,60.82291 q -0.520899,0.42168 -2.43086,0.917773 -1.90996,0.496094 -3.026171,0.496094 -0.347266,0 -0.297657,-0.347266 0.248047,-1.5875 0.570508,-4.688085 0,-0.297657 0.297656,-0.297657 0.07441,0 0.79375,0.02481 0.744141,0.02481 1.141016,0.02481 5.55625,0 16.445505,-2.852539 -0.0496,0.768945 -0.0496,2.182812 0,12.179101 6.10196,18.405078 5.18418,-18.008203 5.18418,-22.721093 0,-0.84336 -1.017,-1.21543 -1.26504,-0.446485 -4.7873,-0.446485 0.32246,-1.091406 0.76894,-3.050976 0.0496,-0.272852 0.29766,-0.272852 8.9793,1.835547 17.53691,3.199805 0.66973,0.124023 0.62012,0.620117 z m 19.44688,-4.985742 q 0,1.661914 -3.81992,2.827734 -3.37344,1.041797 -7.14375,1.041797 -3.52227,0 -5.77949,-1.314648 -2.6045,-1.537891 -2.6045,-4.415234 0,-3.720703 8.58243,-3.720703 4.7625,0 7.86308,1.761132 2.90215,1.63711 2.90215,3.819922 z m 0.19844,35.173046 q -5.03535,-0.917773 -10.71563,-0.917773 -5.48183,0 -15.32929,1.810742 0.37207,-1.835547 0.84336,-4.266406 3.96875,-0.471289 5.15937,-1.885156 1.21543,-1.438672 2.03398,-5.308203 0.79375,-3.671094 0.79375,-7.168555 0,-3.720703 -3.15019,-3.720703 -0.99219,0 -1.88516,0.223242 -1.36425,-3.001367 -1.36425,-4.291211 10.16992,-0.07441 19.00039,-3.348632 0.0992,0.07441 0.0992,0.421679 0,0.545703 -0.24804,1.984375 -1.5875,8.78086 -1.5875,14.609961 0,4.043164 0.96738,5.283398 0.59531,0.768946 1.68672,0.768946 1.24023,0 2.82773,-0.669727 0.44649,-0.173633 0.5209,0.42168 0.27285,2.158008 0.34727,6.052343 z m 36.21484,-15.949413 q 0,1.265039 -0.0992,2.976562 0,0.297656 -0.24804,0.223242 -4.2168,-0.942578 -13.81622,-2.505273 -8.53281,-1.364258 -8.92968,-1.364258 -0.57051,0 -0.57051,4.663281 0,5.878711 2.57969,8.78086 1.95957,2.207617 5.03535,2.356445 1.73633,0.07441 3.1998,-0.520899 0.57051,-0.223242 0.57051,-0.446484 0,-0.148828 -0.29766,-0.248047 -3.24941,-0.595312 -5.3082,-2.406055 -2.05879,-1.835546 -2.05879,-4.365624 0,-1.5875 1.78594,-2.554883 1.81074,-0.992188 4.91133,-0.992188 2.1332,0 4.51445,0.446485 6.39961,1.240234 6.39961,5.13457 0,1.091406 -0.59531,2.232422 -1.66192,3.12539 -4.11758,4.464843 -3.57188,1.934766 -10.86445,1.934766 -8.38399,0 -13.39453,-6.201172 -4.29122,-5.283398 -4.29122,-11.931054 0,-12.27832 20.067,-12.27832 11.6334,0 14.3123,5.829101 1.21543,2.654102 1.21543,6.77168 z m -9.50019,-5.705078 q 0,-1.389063 -1.81075,-2.257227 -1.81074,-0.892969 -4.7873,-0.892969 -3.47266,0 -6.02754,0.644922 -3.00137,0.744141 -3.00137,2.00918 0,3.199805 10.24434,3.199805 5.38262,0 5.38262,-2.703711 z m 46.03749,12.055078 q 0,1.016992 -0.14883,2.009179 -0.71934,4.737695 -7.01973,7.366992 -5.8291,2.455664 -14.70918,2.455664 -6.07715,0 -9.92187,-1.686718 -3.29903,-1.438672 -4.01836,-3.547071 -0.4961,-1.513086 -0.4961,-2.554882 0,-3.59668 6.8461,-4.514453 2.30683,-0.297657 4.2664,-0.297657 3.57188,0 5.65547,0.892969 2.0836,0.892969 2.0836,2.455664 0,1.637109 -1.51309,2.902148 -1.88516,1.5875 -5.70508,2.133204 -2.28203,0.32246 -2.28203,0.967382 0,0.694532 4.01836,0.694532 1.5627,0 2.77813,-0.148829 3.49746,-0.421679 5.13457,-1.215429 2.48046,-1.165821 2.38125,-3.497461 -0.32246,-7.56543 -7.46621,-7.56543 -0.71934,0 -2.92696,0.173633 -2.18281,0.173633 -3.10058,0.173633 -7.49102,0 -7.49102,-5.13457 0,-1.21543 0.22324,-2.182813 0.81856,-3.943945 4.48965,-6.30039 4.2168,-2.703711 11.41016,-2.703711 6.97011,0 10.29394,1.265039 2.90215,1.091406 3.86953,3.522265 0.62012,1.513086 0.62012,2.38125 0,2.80293 -5.95312,3.199805 -1.11621,0.04961 -2.43086,0.04961 -7.88789,0 -7.88789,-2.728515 0,-2.38125 2.75332,-3.571875 0.34726,-0.148828 4.11757,-1.066602 0.44649,-0.09922 0.44649,-0.347265 0,-0.868164 -3.84473,-0.868164 -7.31738,0 -7.31738,4.365625 0,1.016992 0.39687,2.182812 0.91778,2.629297 2.87735,3.671094 1.6123,0.868164 4.44004,0.868164 0.96738,0 3.12539,-0.124024 2.15801,-0.148828 3.22461,-0.148828 4.16718,0 6.25078,1.265039 2.53008,1.513086 2.53008,5.208984 z"
       id="text3"
       style="font-size:50.8px;font-family:Ravie;-inkscape-font-specification:Ravie;text-align:center;text-anchor:middle;fill:#ffd500;stroke:url(#linearGradient6);stroke-width:1.765"
       aria-label="Movies" />
    <path
       d="m 85.006754,106.14787 q 0,9.27696 -9.971484,17.83457 l 6.870898,1.36426 q 0.520899,0.99219 1.463477,2.95176 -2.778125,-0.19844 -7.987109,-0.19844 -4.936133,0 -10.492383,0.14883 1.95957,-2.92695 4.291211,-9.42578 2.554883,-7.14375 2.554883,-10.96367 0,-2.97657 -1.736328,-2.97657 -2.877344,0 -6.424414,5.90352 -3.050977,5.03535 -4.737696,10.88926 0,6.47402 0.644922,8.18554 0.967383,0.42168 3.671094,1.53789 -0.272852,0.69454 -0.917773,2.48047 -8.483203,-1.78593 -14.882813,-3.59668 2.753321,-6.15156 2.753321,-15.40371 0,-9.94668 -3.373438,-9.94668 -2.232422,0 -4.291211,3.94395 -1.984375,3.81992 -2.75332,9.20254 0.04961,3.12539 2.331641,12.25351 -4.886524,-2.1332 -10.269141,-2.1332 -4.737695,0 -6.548437,1.71152 l -0.248047,-5.92832 q 0.917773,-0.5209 2.282031,-0.5209 1.513086,0 3.447852,0.76895 -1.5875,-4.81211 -2.579688,-11.88144 -0.967383,-6.74688 -0.967383,-12.352739 v -1.066602 q 0,-2.083593 -1.661914,-2.455664 -1.661914,-0.124023 -3.323828,-0.248047 -0.917773,-0.148828 -0.917773,-3.745507 0,-0.198438 0.520898,-0.198438 2.827735,0 19.248437,-1.21543 -2.480468,7.069336 -2.480468,14.982027 0,1.5627 0.148828,2.6293 3.423047,-12.228709 12.997656,-16.867186 2.207617,-1.066601 3.819922,-1.066601 5.283398,0 5.283398,10.517187 0,3.77031 -0.669726,8.23516 1.463476,-3.29903 5.531445,-8.38399 4.613672,-5.729881 10.120312,-5.729881 3.919141,0 6.573242,3.001367 2.678906,3.075784 2.678906,7.763864 z m 36.810156,5.13457 q 0,2.33164 -0.57051,5.63067 -0.99219,5.8539 -4.36562,9.77304 -4.36563,5.06016 -11.6334,5.06016 -6.59805,0 -11.931058,-4.2168 -5.630663,-4.46484 -5.630663,-10.71562 0,-4.91133 4.216796,-9.32656 4.787305,-5.01055 12.451955,-5.97793 2.45566,-0.29766 5.68027,-0.29766 6.44922,0 9.25215,2.6293 2.53008,2.38125 2.53008,7.4414 z m -4.26641,3.59668 q 0,-1.90996 -3.175,-3.00136 -2.87734,-0.96739 -7.39179,-0.96739 -4.96094,0 -9.649028,2.72852 -4.415234,2.57969 -4.415234,4.88652 0,1.5875 2.827734,2.6541 2.827734,1.06661 6.870898,1.06661 5.10977,0 10.02109,-2.40606 4.91133,-2.40605 4.91133,-4.96094 z m 49.13808,-15.850192 q -0.24804,2.182812 -0.66972,4.415232 -0.71934,-0.47129 -3.91914,-2.18281 -3.99356,2.72852 -6.54844,11.78223 -2.00918,7.19336 -2.92695,17.21445 l -0.0744,0.86816 q -0.0496,0.66973 -0.5457,0.57051 -5.8291,-1.11621 -11.53418,-1.11621 h -1.41387 q -7.76386,-12.52637 -10.51718,-21.53047 -0.5209,0.42168 -2.43086,0.91778 -1.90996,0.49609 -3.02618,0.49609 -0.34726,0 -0.29765,-0.34727 0.24805,-1.5875 0.57051,-4.68808 0,-0.29766 0.29765,-0.29766 0.0744,0 0.79375,0.0248 0.74414,0.0248 1.14102,0.0248 5.55625,0 16.44551,-2.85254 -0.0496,0.76895 -0.0496,2.18281 0,12.17911 6.10195,18.40508 5.18418,-18.0082 5.18418,-22.72109 0,-0.843361 -1.01699,-1.215431 -1.26504,-0.446485 -4.78731,-0.446485 0.32246,-1.091406 0.76895,-3.050976 0.0496,-0.272852 0.29765,-0.272852 8.9793,1.835547 17.53692,3.199805 0.66972,0.124023 0.62011,0.620117 z m 19.44688,-4.985742 q 0,1.661914 -3.81992,2.827734 -3.37344,1.041797 -7.14375,1.041797 -3.52226,0 -5.77949,-1.314648 -2.60449,-1.537891 -2.60449,-4.415235 0,-3.720703 8.58242,-3.720703 4.7625,0 7.86308,1.761133 2.90215,1.637109 2.90215,3.819922 z m 0.19844,35.173044 q -5.03535,-0.91777 -10.71562,-0.91777 -5.48184,0 -15.3293,1.81074 0.37207,-1.83555 0.84336,-4.26641 3.96875,-0.47128 5.15937,-1.88515 1.21543,-1.43867 2.03399,-5.3082 0.79375,-3.6711 0.79375,-7.16856 0,-3.7207 -3.1502,-3.7207 -0.99219,0 -1.88515,0.22324 -1.36426,-3.00137 -1.36426,-4.29121 10.16992,-0.0744 19.00039,-3.34863 0.0992,0.0744 0.0992,0.42168 0,0.5457 -0.24805,1.98437 -1.5875,8.78086 -1.5875,14.60996 0,4.04317 0.96738,5.2834 0.59532,0.76895 1.68672,0.76895 1.24024,0 2.82774,-0.66973 0.44648,-0.17363 0.52089,0.42168 0.27286,2.15801 0.34727,6.05234 z m 36.21484,-15.94941 q 0,1.26504 -0.0992,2.97656 0,0.29766 -0.24805,0.22324 -4.2168,-0.94258 -13.81621,-2.50527 -8.53281,-1.36426 -8.92969,-1.36426 -0.57051,0 -0.57051,4.66328 0,5.87871 2.57969,8.78086 1.95957,2.20762 5.03535,2.35645 1.73633,0.0744 3.19981,-0.5209 0.5705,-0.22324 0.5705,-0.44649 0,-0.14882 -0.29765,-0.24804 -3.24942,-0.59531 -5.30821,-2.40606 -2.05878,-1.83554 -2.05878,-4.36562 0,-1.5875 1.78593,-2.55488 1.81075,-0.99219 4.91133,-0.99219 2.1332,0 4.51445,0.44648 6.39961,1.24024 6.39961,5.13457 0,1.09141 -0.59531,2.23242 -1.66191,3.1254 -4.11758,4.46485 -3.57187,1.93476 -10.86445,1.93476 -8.38398,0 -13.39453,-6.20117 -4.29121,-5.2834 -4.29121,-11.93105 0,-12.27832 20.06699,-12.27832 11.6334,0 14.3123,5.8291 1.21543,2.6541 1.21543,6.77168 z m -9.50019,-5.70508 q 0,-1.38906 -1.81074,-2.25723 -1.81075,-0.89296 -4.78731,-0.89296 -3.47265,0 -6.02754,0.64492 -3.00136,0.74414 -3.00136,2.00918 0,3.1998 10.24433,3.1998 5.38262,0 5.38262,-2.70371 z m 46.03749,12.05508 q 0,1.01699 -0.14883,2.00918 -0.71933,4.73769 -7.01973,7.36699 -5.8291,2.45566 -14.70917,2.45566 -6.07715,0 -9.92188,-1.68671 -3.29902,-1.43868 -4.01836,-3.54707 -0.49609,-1.51309 -0.49609,-2.55489 0,-3.59668 6.84609,-4.51445 2.30684,-0.29766 4.26641,-0.29766 3.57187,0 5.65547,0.89297 2.08359,0.89297 2.08359,2.45567 0,1.63711 -1.51309,2.90214 -1.88515,1.5875 -5.70507,2.13321 -2.28204,0.32246 -2.28204,0.96738 0,0.69453 4.01836,0.69453 1.5627,0 2.77813,-0.14883 3.49746,-0.42168 5.13457,-1.21543 2.48047,-1.16582 2.38125,-3.49746 -0.32246,-7.56543 -7.46621,-7.56543 -0.71934,0 -2.92695,0.17364 -2.18282,0.17363 -3.10059,0.17363 -7.49102,0 -7.49102,-5.13457 0,-1.21543 0.22325,-2.18281 0.81855,-3.94395 4.48964,-6.30039 4.2168,-2.70372 11.41016,-2.70372 6.97012,0 10.29395,1.26504 2.90214,1.09141 3.86953,3.52227 0.62011,1.51309 0.62011,2.38125 0,2.80293 -5.95312,3.1998 -1.11621,0.0496 -2.43086,0.0496 -7.88789,0 -7.88789,-2.72851 0,-2.38125 2.75332,-3.57188 0.34727,-0.14883 4.11758,-1.0666 0.44648,-0.0992 0.44648,-0.34726 0,-0.86817 -3.84472,-0.86817 -7.31739,0 -7.31739,4.36563 0,1.01699 0.39688,2.18281 0.91777,2.6293 2.87734,3.67109 1.61231,0.86817 4.44004,0.86817 0.96738,0 3.12539,-0.12403 2.15801,-0.14882 3.22461,-0.14882 4.16719,0 6.25078,1.26503 2.53008,1.51309 2.53008,5.20899 z"
       id="text3-2"
       style="font-size:50.8px;font-family:Ravie;-inkscape-font-specification:Ravie;text-align:center;text-anchor:middle;fill:#e03966;stroke:url(#linearGradient8);stroke-width:1.765"
       aria-label="Movies" />
    <path
       d="m 112.83505,157.83969 q 0,9.27695 -9.97149,17.83457 l 6.8709,1.36426 q 0.5209,0.99219 1.46348,2.95176 -2.77813,-0.19844 -7.98711,-0.19844 -4.936134,0 -10.492384,0.14883 1.95957,-2.92696 4.291211,-9.42578 2.554883,-7.14375 2.554883,-10.96368 0,-2.97656 -1.736328,-2.97656 -2.877344,0 -6.424414,5.90352 -3.050977,5.03535 -4.737696,10.88926 0,6.47402 0.644922,8.18554 0.967383,0.42168 3.671094,1.53789 -0.272852,0.69453 -0.917774,2.48047 -8.483203,-1.78594 -14.882812,-3.59668 2.75332,-6.15156 2.75332,-15.40371 0,-9.94668 -3.373437,-9.94668 -2.232422,0 -4.291211,3.94395 -1.984375,3.81992 -2.75332,9.20254 0.04961,3.12539 2.33164,12.25351 -4.886523,-2.1332 -10.26914,-2.1332 -4.737695,0 -6.548437,1.71152 L 52.7829,175.67426 q 0.917773,-0.5209 2.282031,-0.5209 1.513086,0 3.447851,0.76895 -1.5875,-4.81211 -2.579687,-11.88145 -0.967383,-6.74687 -0.967383,-12.35273 v -1.0666 q 0,-2.0836 -1.661914,-2.45567 -1.661914,-0.12402 -3.323828,-0.24804 -0.917773,-0.14883 -0.917773,-3.74551 0,-0.19844 0.520898,-0.19844 2.827734,0 19.248437,-1.21543 -2.480468,7.06934 -2.480468,14.98203 0,1.5627 0.148828,2.6293 3.423047,-12.22871 12.997656,-16.86719 2.207617,-1.0666 3.819922,-1.0666 5.283398,0 5.283398,10.51719 0,3.77031 -0.669727,8.23515 1.463477,-3.29902 5.531446,-8.38398 4.613671,-5.72988 10.120313,-5.72988 3.91914,0 6.57324,3.00136 2.67891,3.07579 2.67891,7.76387 z m 36.81015,5.13457 q 0,2.33164 -0.57051,5.63067 -0.99218,5.8539 -4.36562,9.77304 -4.36563,5.06016 -11.6334,5.06016 -6.59805,0 -11.93105,-4.2168 -5.63067,-4.46484 -5.63067,-10.71562 0,-4.91133 4.2168,-9.32657 4.7873,-5.01054 12.45195,-5.97792 2.45567,-0.29766 5.68027,-0.29766 6.44922,0 9.25215,2.6293 2.53008,2.38125 2.53008,7.4414 z m -4.26641,3.59668 q 0,-1.90996 -3.175,-3.00137 -2.87734,-0.96738 -7.39179,-0.96738 -4.96094,0 -9.64903,2.72852 -4.41523,2.57968 -4.41523,4.88652 0,1.5875 2.82773,2.6541 2.82774,1.0666 6.8709,1.0666 5.10977,0 10.0211,-2.40605 4.91132,-2.40606 4.91132,-4.96094 z m 49.13809,-15.85019 q -0.24805,2.18281 -0.66973,4.41523 -0.71934,-0.47129 -3.91914,-2.18281 -3.99355,2.72851 -6.54844,11.78222 -2.00918,7.19336 -2.92695,17.21446 l -0.0744,0.86816 q -0.0496,0.66973 -0.54571,0.57051 -5.8291,-1.11621 -11.53418,-1.11621 h -1.41386 q -7.76387,-12.52637 -10.51719,-21.53047 -0.5209,0.42168 -2.43086,0.91777 -1.90996,0.4961 -3.02617,0.4961 -0.34727,0 -0.29766,-0.34727 0.24805,-1.5875 0.57051,-4.68808 0,-0.29766 0.29766,-0.29766 0.0744,0 0.79375,0.0248 0.74414,0.0248 1.14101,0.0248 5.55625,0 16.44551,-2.85254 -0.0496,0.76894 -0.0496,2.18281 0,12.1791 6.10195,18.40508 5.18418,-18.0082 5.18418,-22.72109 0,-0.84336 -1.01699,-1.21543 -1.26504,-0.44649 -4.78731,-0.44649 0.32247,-1.0914 0.76895,-3.05097 0.0496,-0.27286 0.29766,-0.27286 8.97929,1.83555 17.53691,3.19981 0.66973,0.12402 0.62012,0.62012 z m 19.44688,-4.98575 q 0,1.66192 -3.81993,2.82774 -3.37343,1.0418 -7.14375,1.0418 -3.52226,0 -5.77949,-1.31465 -2.60449,-1.53789 -2.60449,-4.41524 0,-3.7207 8.58242,-3.7207 4.7625,0 7.86309,1.76113 2.90215,1.63711 2.90215,3.81992 z m 0.19843,35.17305 q -5.03535,-0.91777 -10.71562,-0.91777 -5.48184,0 -15.3293,1.81074 0.37207,-1.83555 0.84336,-4.26641 3.96875,-0.47129 5.15938,-1.88515 1.21543,-1.43867 2.03398,-5.30821 0.79375,-3.67109 0.79375,-7.16855 0,-3.7207 -3.15019,-3.7207 -0.99219,0 -1.88516,0.22324 -1.36426,-3.00137 -1.36426,-4.29121 10.16992,-0.0744 19.00039,-3.34864 0.0992,0.0744 0.0992,0.42168 0,0.54571 -0.24805,1.98438 -1.5875,8.78086 -1.5875,14.60996 0,4.04316 0.96739,5.2834 0.59531,0.76894 1.68671,0.76894 1.24024,0 2.82774,-0.66972 0.44648,-0.17364 0.5209,0.42168 0.27285,2.158 0.34726,6.05234 z m 36.21485,-15.94941 q 0,1.26504 -0.0992,2.97656 0,0.29766 -0.24805,0.22324 -4.2168,-0.94258 -13.81621,-2.50527 -8.53281,-1.36426 -8.92969,-1.36426 -0.5705,0 -0.5705,4.66328 0,5.87871 2.57968,8.78086 1.95957,2.20762 5.03535,2.35645 1.73633,0.0744 3.19981,-0.5209 0.57051,-0.22324 0.57051,-0.44649 0,-0.14883 -0.29766,-0.24804 -3.24941,-0.59532 -5.3082,-2.40606 -2.05879,-1.83555 -2.05879,-4.36562 0,-1.5875 1.78594,-2.55489 1.81074,-0.99218 4.91132,-0.99218 2.13321,0 4.51446,0.44648 6.39961,1.24024 6.39961,5.13457 0,1.09141 -0.59532,2.23242 -1.66191,3.12539 -4.11757,4.46485 -3.57188,1.93476 -10.86446,1.93476 -8.38398,0 -13.39453,-6.20117 -4.29121,-5.2834 -4.29121,-11.93105 0,-12.27832 20.06699,-12.27832 11.6334,0 14.31231,5.8291 1.21543,2.6541 1.21543,6.77168 z m -9.5002,-5.70508 q 0,-1.38906 -1.81074,-2.25723 -1.81074,-0.89297 -4.78731,-0.89297 -3.47265,0 -6.02753,0.64493 -3.00137,0.74414 -3.00137,2.00917 0,3.19981 10.24433,3.19981 5.38262,0 5.38262,-2.70371 z m 46.03749,12.05508 q 0,1.01699 -0.14883,2.00918 -0.71933,4.73769 -7.01972,7.36699 -5.8291,2.45566 -14.70918,2.45566 -6.07715,0 -9.92188,-1.68672 -3.29902,-1.43867 -4.01836,-3.54707 -0.49609,-1.51308 -0.49609,-2.55488 0,-3.59668 6.84609,-4.51445 2.30684,-0.29766 4.26641,-0.29766 3.57188,0 5.65547,0.89297 2.08359,0.89297 2.08359,2.45566 0,1.63711 -1.51308,2.90215 -1.88516,1.5875 -5.70508,2.13321 -2.28203,0.32246 -2.28203,0.96738 0,0.69453 4.01836,0.69453 1.56269,0 2.77812,-0.14883 3.49746,-0.42168 5.13457,-1.21543 2.48047,-1.16582 2.38125,-3.49746 -0.32246,-7.56543 -7.46621,-7.56543 -0.71933,0 -2.92695,0.17363 -2.18281,0.17364 -3.10059,0.17364 -7.49101,0 -7.49101,-5.13457 0,-1.21543 0.22324,-2.18282 0.81855,-3.94394 4.48965,-6.30039 4.21679,-2.70371 11.41015,-2.70371 6.97012,0 10.29395,1.26504 2.90215,1.09141 3.86953,3.52227 0.62012,1.51308 0.62012,2.38125 0,2.80293 -5.95313,3.1998 -1.11621,0.0496 -2.43086,0.0496 -7.88789,0 -7.88789,-2.72851 0,-2.38125 2.75332,-3.57188 0.34727,-0.14883 4.11758,-1.0666 0.44648,-0.0992 0.44648,-0.34727 0,-0.86816 -3.84472,-0.86816 -7.31738,0 -7.31738,4.36562 0,1.017 0.39687,2.18282 0.91777,2.62929 2.87734,3.67109 1.61231,0.86816 4.44004,0.86816 0.96739,0 3.12539,-0.12402 2.15801,-0.14883 3.22461,-0.14883 4.16719,0 6.25078,1.26504 2.53008,1.51309 2.53008,5.20899 z"
       id="text3-7"
       style="font-size:50.8px;font-family:Ravie;-inkscape-font-specification:Ravie;text-align:center;text-anchor:middle;fill:#049554;stroke:url(#linearGradient4);stroke-width:1.765"
       aria-label="Movies" />
  </g>
</svg>
